***************************************************************
 
http://www.torrentforce.org/imghost/3/greyshadow_tfbanner.png

***************************************************************
 
http://www.torrentforce.org/imghost/4/greyshadow_badteacher.jpg

***************************************************************

FILM TITLE: Bad Teacher (2011)

***************************************************************

Genre: Comedy    

Rated R for sexual content, nudity, language and some drug use

Release: 17 June 2011 (UK)

Director: Jake Kasdan

Writer: Gene Stupnitsky, Lee Eisenberg

Stars: Cameron Diaz, Jason Segel and Justin Timberlake

Country: USA

Language: English

Plot:
A comedy centered around a foul-mouthed, junior high teacher who, 
after being dumped by her sugar daddy, begins to woo a colleague 
-- a move that pits her against a well-loved teacher.

IMDB Rating: 5.8/10 from 29,740 users
 
http://www.imdb.com/title/tt1284575/ 

****************************************************************
 
http://www.torrentforce.org/imghost/4/greyshadow_badteacherxvid4t2z2xpaaf.png 
http://www.torrentforce.org/imghost/4/greyshadow_badteacherxvid18vdwnrxe2.png 
http://www.torrentforce.org/imghost/4/greyshadow_badteacherxvid2.png 
http://www.torrentforce.org/imghost/4/greyshadow_badteacherxvid3.png

****************************************************************

[IMG]http://www.torrentforce.org/imghost/2/greyshadow_mediainfo.png[/IMG]
General
Complete name                    : Bad Teacher 2011 720p BDRip XviD ac3 (avi) [TFRG].avi
Format                           : AVI
Format/Info                      : Audio Video Interleave
Format profile                   : OpenDML
File size                        : 2.27 GiB
Duration                         : 1h 37mn
Overall bit rate                 : 3329 Kbps
Writing library                  : VirtualDub build 32842/release

Video
ID                               : 0
Format                           : MPEG-4 Visual
Format profile                   : Simple@L5
Format settings, BVOP            : No
Format settings, QPel            : No
Format settings, GMC             : No warppoints
Format settings, Matrix          : Default (H.263)
Codec ID                         : XVID
Codec ID/Hint                    : XviD
Duration                         : 1h 37mn
Bit rate                         : 2998 Kbps
Width                            : 1280 pixels
Height                           : 688 pixels
Display aspect ratio             : 1.860
Frame rate                       : 23.976 fps
Color space                      : YUV
Chroma subsampling               : 4:2:0
Bit depth                        : 8 bits
Scan type                        : Progressive
Compression mode                 : Lossy
Bits/(Pixel*Frame)               : 0.142
Stream size                      : 2.04 GiB (90%)
Writing library                  : XviD 64

Audio
ID                               : 1
Format                           : AC-3
Format/Info                      : Audio Coding 3
Mode extension                   : CM (complete main)
Codec ID                         : 2000
Duration                         : 1h 37mn
Bit rate mode                    : Constant
Bit rate                         : 320 Kbps
Channel(s)                       : 6 channels
Channel positions                : Front: L C R, Side: L R, LFE
Sampling rate                    : 48.0 KHz
Bit depth                        : 16 bits
Compression mode                 : Lossy
Stream size                      : 223 MiB (10%)
Alignment                        : Aligned on interleaves
Interleave, duration             : 42 ms (1.00 video frame)
Interleave, preload duration     : 512 ms

****************************************************************

Video Source: Bad.Teacher.2011.CEE.BluRay.1080p.AVC.DTS-HD.MA5.1-CHDBits (41.8GB)

Thanks: (chdbits.org)

****************************************************************

I provide a small sample, so please download this to check your 
compatibility first if you are unsure.

****************************************************************

A big thanks to all the sites out there who care and share and
who make it possible for you to download this torrent for free.

Greetz to Westy, Ripwyn, mustang, noir, Blackjesus, MXMG, The Stig 
and all the other outstanding members of our community of file 
sharers and a special mention to our friends at 1337x.

****************************************************************